<svg width="16" height="16" viewBox="0 0 16 16" fill="none" xmlns="http://www.w3.org/2000/svg">
<path d="M13.2654 6.26505L8.26541 11.265C8.1951 11.3353 8.09979 11.3747 8.00041 11.3747C7.90104 11.3747 7.80572 11.3353 7.73541 11.265L2.73541 6.26505C2.66917 6.19396 2.63311 6.09994 2.63482 6.00278C2.63654 5.90563 2.67589 5.81294 2.7446 5.74423C2.81331 5.67553 2.906 5.63617 3.00315 5.63446C3.1003 5.63274 3.19432 5.66881 3.26541 5.73505L8.00041 10.4694L12.7354 5.73505C12.8065 5.66881 12.9005 5.63274 12.9977 5.63446C13.0948 5.63617 13.1875 5.67553 13.2562 5.74423C13.3249 5.81294 13.3643 5.90563 13.366 6.00278C13.3677 6.09994 13.3317 6.19396 13.2654 6.26505Z" fill="black"/>
</svg>
